<?xml version="1.0" standalone="no"?>
<!DOCTYPE svg PUBLIC "-//W3C//DTD SVG 20010904//EN"
 "http://www.w3.org/TR/2001/REC-SVG-20010904/DTD/svg10.dtd">
<svg version="1.0" xmlns="http://www.w3.org/2000/svg" viewBox="0 0 1733.000000 2049.000000"
 preserveAspectRatio="xMidYMid meet">

<g transform="translate(0.000000,2049.000000) scale(0.100000,-0.100000)"
fill="#000000" stroke="none">
<path d="M8401 20479 c-844 -53 -1652 -373 -2321 -917 -150 -122 -457 -434
-584 -592 -203 -254 -391 -556 -521 -839 -189 -408 -303 -820 -357 -1286 -20
-173 -17 -715 5 -895 71 -570 257 -1125 535 -1590 516 -867 1306 -1501 2252
-1809 1209 -392 2543 -194 3580 532 203 142 351 267 546 462 210 209 355 384
503 605 368 549 579 1120 668 1805 26 200 26 730 0 930 -127 977 -527 1786
-1213 2455 -822 800 -1941 1212 -3093 1139z"/>
<path d="M7195 10503 c-608 -48 -1109 -183 -1630 -439 -848 -416 -1538 -1104
-1960 -1953 -234 -470 -364 -917 -432 -1476 -17 -141 -18 -306 -18 -2880 l0
-2730 24 -95 c58 -230 150 -397 311 -561 196 -200 420 -314 685 -348 68 -9
825 -11 3075 -9 2759 4 2994 5 3105 21 348 50 594 106 864 196 381 128 676
272 1019 498 731 482 1308 1189 1633 2000 140 350 228 695 286 1123 14 109 17
272 20 1310 5 1234 2 1342 -38 1630 -115 825 -475 1612 -1026 2240 -738 841
-1745 1358 -2852 1465 -129 13 -385 15 -1590 13 -790 -1 -1454 -3 -1476 -5z"/>
</g>
</svg>
