<?xml version="1.0" standalone="no"?>
<!DOCTYPE svg PUBLIC "-//W3C//DTD SVG 20010904//EN"
 "http://www.w3.org/TR/2001/REC-SVG-20010904/DTD/svg10.dtd">
<svg version="1.0" xmlns="http://www.w3.org/2000/svg" viewBox="0 0 900.000000 900.000000"
 preserveAspectRatio="xMidYMid meet">

<g transform="translate(0.000000,900.000000) scale(0.100000,-0.100000)"
fill="#000000" stroke="none">
<path d="M1070 4625 l0 -4015 2993 0 2992 0 635 731 c349 402 696 802 771 888
l136 156 -458 3 -459 2 0 3125 0 3125 -3305 0 -3305 0 0 -4015z m1797 2921
c28 -14 59 -35 68 -49 11 -18 27 -26 59 -29 99 -12 148 -87 154 -238 3 -70 -1
-116 -15 -177 -17 -68 -18 -85 -7 -105 35 -64 20 -154 -35 -202 -11 -11 -21
-24 -21 -30 0 -28 -55 -125 -91 -162 l-39 -40 -2 -93 c-1 -77 2 -97 19 -119
30 -41 101 -85 203 -126 164 -66 222 -98 286 -161 64 -63 104 -141 104 -205
l0 -30 -792 2 -793 3 3 40 c2 22 16 68 33 101 47 100 118 153 306 231 154 63
221 102 249 142 21 31 24 47 24 124 l0 89 -41 40 c-24 23 -56 71 -74 112 -19
39 -43 80 -54 90 -42 38 -57 146 -26 192 15 23 15 33 -1 126 -37 225 17 383
157 454 65 32 109 42 199 43 60 1 86 -4 127 -23z m3292 -356 c121 -68 119
-242 -4 -312 l-40 -22 -760 0 c-685 0 -763 2 -791 17 -67 35 -113 123 -100
192 13 66 73 130 137 145 19 5 367 8 774 7 l740 -2 44 -25z m-22 -881 c133
-50 152 -237 31 -316 l-42 -28 -743 -3 c-504 -2 -757 1 -784 8 -155 42 -183
248 -44 327 l40 23 757 0 c511 0 766 -3 785 -11z m-1410 -1791 c54 -30 86 -82
91 -148 5 -72 -20 -124 -81 -163 l-41 -27 -1301 0 -1300 0 -40 23 c-130 74
-119 254 20 318 38 18 92 19 1330 16 1207 -2 1292 -3 1322 -19z m2531 -877
l62 -1 0 -800 0 -800 250 0 c138 0 250 -2 250 -6 0 -4 -700 -814 -750 -867
-16 -18 -25 -9 -206 199 -104 120 -276 317 -381 438 -106 122 -193 224 -193
229 0 4 110 7 245 7 l245 0 0 798 c0 439 2 801 4 803 4 3 267 4 474 0z m-3106
-181 c127 -36 176 -190 92 -290 -58 -68 19 -64 -1098 -65 -734 0 -1021 3
-1055 11 -81 21 -142 117 -127 199 13 66 73 130 137 145 52 12 2007 12 2051 0z
m575 -1088 c84 -43 118 -155 73 -242 -21 -42 -57 -71 -109 -88 -47 -16 -2539
-17 -2596 -1 -53 15 -110 74 -125 128 -26 97 35 198 133 218 21 5 610 8 1310
7 l1272 -1 42 -21z"/>
</g>
</svg>
