<?xml version="1.0" encoding="UTF-8"?>
<!DOCTYPE svg PUBLIC "-//W3C//DTD SVG 1.1//EN" "http://www.w3.org/Graphics/SVG/1.1/DTD/svg11.dtd">
<svg xmlns="http://www.w3.org/2000/svg" version="1.1" width="500px" height="500px" style="shape-rendering:geometricPrecision; text-rendering:geometricPrecision; image-rendering:optimizeQuality; fill-rule:evenodd; clip-rule:evenodd" xmlns:xlink="http://www.w3.org/1999/xlink">
<g><path style="opacity:1" fill="#2e2e2e" d="M -0.5,-0.5 C 166.167,-0.5 332.833,-0.5 499.5,-0.5C 499.5,166.167 499.5,332.833 499.5,499.5C 332.833,499.5 166.167,499.5 -0.5,499.5C -0.5,332.833 -0.5,166.167 -0.5,-0.5 Z"/></g>
<g><path style="opacity:1" fill="#262223" d="M 232.5,165.5 C 236.514,165.334 240.514,165.501 244.5,166C 248.32,168.262 249.32,171.429 247.5,175.5C 244.978,177.856 242.312,180.023 239.5,182C 243.167,182.333 246.833,182.667 250.5,183C 255.769,186.819 255.769,190.819 250.5,195C 245.481,197.843 240.814,201.176 236.5,205C 243.267,206.545 250.101,207.711 257,208.5C 274.439,202.258 292.272,201.091 310.5,205C 313.208,206.069 315.875,207.236 318.5,208.5C 327.93,201.344 336.764,202.011 345,210.5C 349.57,221.119 347.07,229.619 337.5,236C 339.255,241.011 341.422,245.844 344,250.5C 348.758,254.525 353.758,258.192 359,261.5C 361.833,267.167 364.667,272.833 367.5,278.5C 374.049,282.026 380.549,285.693 387,289.5C 390.661,298.344 387.828,303.844 378.5,306C 363.986,306.919 351.319,302.419 340.5,292.5C 338.507,294.499 336.173,295.999 333.5,297C 328.5,297.667 323.5,297.667 318.5,297C 307.9,293.369 298.567,287.702 290.5,280C 284.735,279.737 279.235,278.57 274,276.5C 260.964,278.942 247.798,280.109 234.5,280C 230.89,283.639 226.556,285.972 221.5,287C 209.814,287.349 198.148,288.015 186.5,289C 183.167,290.667 179.833,292.333 176.5,294C 169.154,296.115 161.82,298.448 154.5,301C 147.709,302.058 143.376,299.225 141.5,292.5C 141.887,290.726 142.553,289.059 143.5,287.5C 133.716,285.914 130.549,280.581 134,271.5C 136.205,268.96 138.705,266.793 141.5,265C 139.667,263.833 137.833,262.667 136,261.5C 133.936,257.039 131.602,252.706 129,248.5C 128.262,244.598 128.928,240.932 131,237.5C 138.323,228.859 144.656,219.526 150,209.5C 156.824,203.17 164.657,198.504 173.5,195.5C 187.696,174.569 207.363,164.569 232.5,165.5 Z"/></g>
<g><path style="opacity:1" fill="#fcfcfc" d="M 232.5,171.5 C 235.518,171.335 238.518,171.502 241.5,172C 235.167,177 228.833,182 222.5,187C 210.466,187.686 200.133,192.186 191.5,200.5C 189.876,201.869 189.376,203.536 190,205.5C 196.682,197.406 205.182,192.239 215.5,190C 226.172,189.317 236.839,188.984 247.5,189C 240.55,193.615 233.884,198.615 227.5,204C 217.126,210.353 206.126,215.353 194.5,219C 193.289,219.893 193.289,220.726 194.5,221.5C 205.615,216.102 217.282,212.768 229.5,211.5C 241.578,212.606 253.578,214.273 265.5,216.5C 270.627,216.026 270.627,215.026 265.5,213.5C 268.647,211.84 271.98,210.673 275.5,210C 284.833,209.333 294.167,209.333 303.5,210C 309.686,210.894 315.353,213.061 320.5,216.5C 326.331,208.069 332.831,207.402 340,214.5C 340.854,218.625 340.52,222.625 339,226.5C 336.867,228.853 334.2,229.853 331,229.5C 327.985,229.358 325.151,228.858 322.5,228C 325,230.5 327.5,233 330,235.5C 332.727,241.954 335.727,248.288 339,254.5C 343.324,259.155 348.324,262.822 354,265.5C 356.927,271.69 360.093,277.69 363.5,283.5C 369.057,287.446 375.057,290.613 381.5,293C 383.251,296.943 381.918,299.277 377.5,300C 368.461,301.101 360.128,299.101 352.5,294C 347.882,291.05 343.548,287.716 339.5,284C 325.742,283.484 313.409,279.151 302.5,271C 293.412,268.54 285.245,264.373 278,258.5C 277.333,259.5 277.333,260.5 278,261.5C 284.132,264.405 283.966,266.905 277.5,269C 263.771,272.938 249.771,274.438 235.5,273.5C 235.66,271.801 235.494,270.134 235,268.5C 232.175,272.325 229.008,275.825 225.5,279C 212.211,280.302 198.877,281.302 185.5,282C 180.157,286.004 174.157,288.337 167.5,289C 161.957,292.626 155.957,294.626 149.5,295C 148.446,293.612 148.28,292.112 149,290.5C 154.668,283.754 161.501,278.587 169.5,275C 177.965,272.511 186.299,269.844 194.5,267C 197.986,265.54 199.819,263.04 200,259.5C 196.117,264.63 190.95,266.963 184.5,266.5C 178.339,266.168 172.339,265.001 166.5,263C 161.5,262.667 156.5,262.333 151.5,262C 147.604,259.906 143.771,257.739 140,255.5C 138.839,251.878 137.339,248.544 135.5,245.5C 136.858,239.967 139.691,235.301 144,231.5C 147.667,225.5 151.333,219.5 155,213.5C 161.297,207.931 168.464,203.765 176.5,201C 182.134,194.364 188.134,188.031 194.5,182C 206.31,175.012 218.977,171.512 232.5,171.5 Z"/></g>
<g><path style="opacity:1" fill="#2f2b2c" d="M 168.5,220.5 C 169.833,220.5 171.167,220.5 172.5,220.5C 173.186,224.287 172.186,227.454 169.5,230C 167.191,230.756 165.191,230.256 163.5,228.5C 159.482,232.676 158.649,232.009 161,226.5C 163.114,223.879 165.614,221.879 168.5,220.5 Z"/></g>
<g><path style="opacity:1" fill="#eaeaea" d="M 167.5,223.5 C 170.674,223.952 171.007,224.952 168.5,226.5C 167.614,225.675 167.281,224.675 167.5,223.5 Z"/></g>
<g><path style="opacity:1" fill="#f5f5f5" d="M 162.5,264.5 C 169.126,265.989 175.793,267.489 182.5,269C 173.359,271.952 164.026,274.285 154.5,276C 150.934,278.201 147.1,279.701 143,280.5C 139.745,280.255 138.412,278.588 139,275.5C 140.873,273.291 143.04,271.458 145.5,270C 151.16,267.742 156.827,265.908 162.5,264.5 Z"/></g>
<g><path style="opacity:1" fill="#f2f2f2" d="M 285.5,266.5 C 289.639,268.455 293.972,269.955 298.5,271C 307.423,278.541 317.757,283.207 329.5,285C 333.485,286.274 334.152,288.274 331.5,291C 322.394,292.307 314.061,290.307 306.5,285C 301.833,281.333 297.167,277.667 292.5,274C 287.749,273.811 283.083,273.145 278.5,272C 281.02,270.303 283.353,268.47 285.5,266.5 Z"/></g>
<g><path style="opacity:1" fill="#909090" d="M 319.5,311.5 C 319.5,309.833 319.5,308.167 319.5,306.5C 313.167,306.5 306.833,306.5 300.5,306.5C 300.5,308.167 300.5,309.833 300.5,311.5C 299.539,309.735 299.205,307.735 299.5,305.5C 306.5,305.5 313.5,305.5 320.5,305.5C 320.795,307.735 320.461,309.735 319.5,311.5 Z"/></g>
<g><path style="opacity:1" fill="#f4f4f4" d="M 180.5,305.5 C 184.846,305.334 189.179,305.501 193.5,306C 199.019,307.504 201.186,311.004 200,316.5C 199.027,318.64 197.527,320.307 195.5,321.5C 196.789,324.58 198.455,327.414 200.5,330C 197.833,330.667 195.167,330.667 192.5,330C 190.873,327.246 189.373,324.412 188,321.5C 187.502,324.482 187.335,327.482 187.5,330.5C 185.167,330.5 182.833,330.5 180.5,330.5C 180.5,322.167 180.5,313.833 180.5,305.5 Z"/></g>
<g><path style="opacity:1" fill="#f6f6f6" d="M 210.5,305.5 C 224.059,305.212 229.226,311.545 226,324.5C 221.869,330.115 216.369,331.948 209.5,330C 203.333,326.155 201.166,320.655 203,313.5C 205.028,310.308 207.528,307.641 210.5,305.5 Z"/></g>
<g><path style="opacity:1" fill="#cacaca" d="M 242.5,306.5 C 238.833,306.5 235.167,306.5 231.5,306.5C 231.5,314.5 231.5,322.5 231.5,330.5C 230.507,322.35 230.174,314.017 230.5,305.5C 234.702,305.183 238.702,305.517 242.5,306.5 Z"/></g>
<g><path style="opacity:1" fill="#f8f8f8" d="M 242.5,306.5 C 250.915,307.982 254.415,312.982 253,321.5C 251.558,325.275 249.058,328.108 245.5,330C 240.845,330.499 236.179,330.666 231.5,330.5C 231.5,322.5 231.5,314.5 231.5,306.5C 235.167,306.5 238.833,306.5 242.5,306.5 Z"/></g>
<g><path style="opacity:1" fill="#a7a7a7" d="M 271.5,306.5 C 266.5,306.5 261.5,306.5 256.5,306.5C 256.5,314.5 256.5,322.5 256.5,330.5C 255.507,322.35 255.174,314.017 255.5,305.5C 261.026,305.179 266.36,305.512 271.5,306.5 Z"/></g>
<g><path style="opacity:1" fill="#fefffe" d="M 271.5,306.5 C 271.5,308.167 271.5,309.833 271.5,311.5C 268.5,311.5 265.5,311.5 262.5,311.5C 262.5,312.833 262.5,314.167 262.5,315.5C 265.167,315.5 267.833,315.5 270.5,315.5C 270.5,317.167 270.5,318.833 270.5,320.5C 267.833,320.5 265.167,320.5 262.5,320.5C 262.5,322.167 262.5,323.833 262.5,325.5C 265.5,325.5 268.5,325.5 271.5,325.5C 271.5,327.167 271.5,328.833 271.5,330.5C 266.5,330.5 261.5,330.5 256.5,330.5C 256.5,322.5 256.5,314.5 256.5,306.5C 261.5,306.5 266.5,306.5 271.5,306.5 Z"/></g>
<g><path style="opacity:1" fill="#a9a9a9" d="M 281.5,306.5 C 279.5,306.5 277.5,306.5 275.5,306.5C 275.5,314.5 275.5,322.5 275.5,330.5C 274.507,322.35 274.174,314.017 274.5,305.5C 277.059,305.198 279.393,305.532 281.5,306.5 Z"/></g>
<g><path style="opacity:1" fill="#fcfcfc" d="M 281.5,306.5 C 284.66,310.148 287.327,314.148 289.5,318.5C 289.56,319.043 289.893,319.376 290.5,319.5C 291.492,315.217 291.826,310.884 291.5,306.5C 293.5,306.5 295.5,306.5 297.5,306.5C 297.5,314.5 297.5,322.5 297.5,330.5C 295.143,330.663 292.81,330.497 290.5,330C 287.667,325.833 284.833,321.667 282,317.5C 281.501,321.821 281.334,326.154 281.5,330.5C 279.5,330.5 277.5,330.5 275.5,330.5C 275.5,322.5 275.5,314.5 275.5,306.5C 277.5,306.5 279.5,306.5 281.5,306.5 Z"/></g>
<g><path style="opacity:1" fill="#bebebe" d="M 297.5,306.5 C 295.5,306.5 293.5,306.5 291.5,306.5C 291.826,310.884 291.492,315.217 290.5,319.5C 289.893,319.376 289.56,319.043 289.5,318.5C 290.485,314.366 290.818,310.032 290.5,305.5C 293.059,305.198 295.393,305.532 297.5,306.5 Z"/></g>
<g><path style="opacity:1" fill="#fbfbfb" d="M 319.5,311.5 C 317.5,311.5 315.5,311.5 313.5,311.5C 313.5,317.833 313.5,324.167 313.5,330.5C 311.167,330.5 308.833,330.5 306.5,330.5C 306.5,324.167 306.5,317.833 306.5,311.5C 304.5,311.5 302.5,311.5 300.5,311.5C 300.5,309.833 300.5,308.167 300.5,306.5C 306.833,306.5 313.167,306.5 319.5,306.5C 319.5,308.167 319.5,309.833 319.5,311.5 Z"/></g>
<g><path style="opacity:1" fill="#3f3f3f" d="M 187.5,311.5 C 189.199,311.34 190.866,311.506 192.5,312C 193.833,313.333 193.833,314.667 192.5,316C 190.866,316.494 189.199,316.66 187.5,316.5C 187.5,314.833 187.5,313.167 187.5,311.5 Z"/></g>
<g><path style="opacity:1" fill="#353535" d="M 211.5,312.5 C 216.706,311.12 219.706,312.953 220.5,318C 218.895,325.051 215.395,326.218 210,321.5C 209.068,318.177 209.568,315.177 211.5,312.5 Z"/></g>
<g><path style="opacity:1" fill="#343434" d="M 237.5,312.5 C 245.744,312.228 248.078,315.728 244.5,323C 242.26,323.977 239.927,324.477 237.5,324.5C 237.5,320.5 237.5,316.5 237.5,312.5 Z"/></g>
<g><path style="opacity:1" fill="#878787" d="M 270.5,320.5 C 268.393,321.468 266.059,321.802 263.5,321.5C 263.5,322.5 263.5,323.5 263.5,324.5C 266.385,324.194 269.052,324.527 271.5,325.5C 268.5,325.5 265.5,325.5 262.5,325.5C 262.5,323.833 262.5,322.167 262.5,320.5C 265.167,320.5 267.833,320.5 270.5,320.5 Z"/></g>
</svg>
